<svg width="37" height="37" viewBox="0 0 37 37" fill="none" xmlns="http://www.w3.org/2000/svg">
<g clip-path="url(#clip0_1_1672)">
<path d="M13.875 21.9687C14.9393 21.9687 15.8021 21.1059 15.8021 20.0416C15.8021 18.9773 14.9393 18.1146 13.875 18.1146C12.8107 18.1146 11.9479 18.9773 11.9479 20.0416C11.9479 21.1059 12.8107 21.9687 13.875 21.9687Z" fill="#3096FF"/>
<path d="M32.0204 13.2275L30.6021 16.3262C30.7408 17.0354 30.8333 17.76 30.8333 18.5C30.8333 25.2987 25.2987 30.8333 18.5 30.8333C11.7012 30.8333 6.16665 25.2987 6.16665 18.5C6.16665 18.4229 6.18206 18.3458 6.16665 18.2841C10.175 16.7733 13.3971 13.6746 15.0158 9.7279C17.8525 13.1966 22.1537 15.4166 26.9791 15.4166C27.6729 15.4166 28.3512 15.355 29.0296 15.2625L28.1046 13.2275L26.7479 10.2521L23.7725 8.8954L19.4712 6.93748L23.7725 4.97956L24.8671 4.48623C22.9246 3.59206 20.7662 3.08331 18.5 3.08331C9.98998 3.08331 3.08331 9.98998 3.08331 18.5C3.08331 27.01 9.98998 33.9166 18.5 33.9166C27.01 33.9166 33.9166 27.01 33.9166 18.5C33.9166 16.2337 33.4079 14.0754 32.5291 12.1329L32.0204 13.2275Z" fill="#3096FF"/>
<path d="M23.125 21.9687C24.1893 21.9687 25.0521 21.1059 25.0521 20.0416C25.0521 18.9773 24.1893 18.1146 23.125 18.1146C22.0607 18.1146 21.1979 18.9773 21.1979 20.0416C21.1979 21.1059 22.0607 21.9687 23.125 21.9687Z" fill="#3096FF"/>
<path d="M31.7584 8.63335L30.0625 12.3334L28.3667 8.63335L24.6667 6.93752L28.3667 5.24169L30.0625 1.54169L31.7584 5.24169L35.4584 6.93752L31.7584 8.63335Z" fill="#3096FF"/>
</g>
<defs>
<clipPath id="clip0_1_1672">
<rect width="37" height="37" fill="white"/>
</clipPath>
</defs>
</svg>
