<svg width="31" height="23" viewBox="0 0 31 23" fill="none" xmlns="http://www.w3.org/2000/svg">
<path d="M22.4375 11.5C24.565 11.5 26.2763 9.77331 26.2763 7.64581C26.2763 5.51831 24.565 3.79165 22.4375 3.79165C20.31 3.79165 18.5833 5.51831 18.5833 7.64581C18.5833 9.77331 20.31 11.5 22.4375 11.5ZM10.875 9.95831C13.4342 9.95831 15.4846 7.89248 15.4846 5.33331C15.4846 2.77415 13.4342 0.708313 10.875 0.708313C8.31584 0.708313 6.25001 2.77415 6.25001 5.33331C6.25001 7.89248 8.31584 9.95831 10.875 9.95831ZM22.4375 14.5833C19.6163 14.5833 13.9583 16.0016 13.9583 18.8229V22.2916H30.9167V18.8229C30.9167 16.0016 25.2588 14.5833 22.4375 14.5833ZM10.875 13.0416C7.28293 13.0416 0.0833435 14.8454 0.0833435 18.4375V22.2916H10.875V18.8229C10.875 17.5125 11.3838 15.2154 14.5288 13.4733C13.1875 13.1958 11.8925 13.0416 10.875 13.0416Z" fill="#3096FF"/>
</svg>
